<svg id="Layer_1" data-name="Layer 1" xmlns="http://www.w3.org/2000/svg" viewBox="0 0 95.96 95.96"><defs><style>.cls-1{fill:#fff;}</style></defs><title>rna</title><path class="cls-1" d="M87.18,98H12.82A10.82,10.82,0,0,1,2,87.18V12.82A10.82,10.82,0,0,1,12.82,2H87.18A10.82,10.82,0,0,1,98,12.82V87.18A10.82,10.82,0,0,1,87.18,98ZM12.82,7.74a5.09,5.09,0,0,0-5.08,5.08V87.18a5.09,5.09,0,0,0,5.08,5.08H87.18a5.09,5.09,0,0,0,5.08-5.08V12.82a5.09,5.09,0,0,0-5.08-5.08Z" transform="translate(-2.02 -2.02)"/><rect class="cls-1" x="16.81" y="16.81" width="7.33" height="62.34" rx="3.67"/><rect class="cls-1" x="49.81" y="16.81" width="7.33" height="62.34" rx="3.67"/><rect class="cls-1" x="71.82" y="16.81" width="7.33" height="62.34" rx="3.67"/><rect class="cls-1" x="27.81" y="16.81" width="7.33" height="29.82" rx="3.67"/><rect class="cls-1" x="38.81" y="16.81" width="7.33" height="29.82" rx="3.67"/><rect class="cls-1" x="60.81" y="33.07" width="7.33" height="29.82" rx="3.67"/><rect class="cls-1" x="38.81" y="49.33" width="7.33" height="29.82" rx="3.67"/></svg>